<?xml version="1.0" standalone="no"?>
<!DOCTYPE svg PUBLIC "-//W3C//DTD SVG 20010904//EN"
 "http://www.w3.org/TR/2001/REC-SVG-20010904/DTD/svg10.dtd">
<svg version="1.0" xmlns="http://www.w3.org/2000/svg"
 width="592.000000pt" height="290.000000pt" viewBox="0 0 592.000000 290.000000"
 preserveAspectRatio="xMidYMid meet">

<g transform="translate(0.000000,290.000000) scale(0.100000,-0.100000)"
fill="#000000" stroke="none">
<path d="M550 2304 c-70 -30 -123 -98 -141 -182 -20 -96 34 -207 122 -252 l39
-20 0 -374 0 -374 -31 -12 c-74 -31 -132 -123 -133 -211 -1 -73 42 -159 99
-200 78 -56 202 -56 280 0 57 41 100 127 99 200 -1 88 -59 180 -133 211 -27
11 -31 18 -31 49 0 93 43 155 138 198 29 14 119 42 200 63 81 21 167 46 192
55 74 26 165 82 204 126 49 53 93 148 102 215 4 39 11 55 24 59 45 14 103 68
126 118 76 163 -36 347 -211 347 -95 0 -171 -47 -218 -135 -30 -56 -29 -155 0
-211 23 -43 79 -98 118 -116 20 -9 23 -16 18 -47 -12 -77 -58 -139 -138 -186
-51 -29 -102 -46 -273 -90 -75 -19 -170 -51 -209 -70 l-73 -34 0 209 0 210 39
20 c88 45 142 156 122 252 -19 85 -72 153 -143 182 -47 20 -142 20 -188 0z
m123 -133 c88 -34 89 -155 2 -179 -66 -19 -125 23 -124 88 0 41 15 64 55 85
34 18 36 18 67 6z m890 -32 c17 -18 27 -41 27 -59 0 -19 -10 -41 -27 -59 -60
-65 -163 -30 -163 54 0 48 15 74 53 91 42 18 76 10 110 -27z m-873 -1184 c59
-30 68 -98 21 -146 -76 -76 -202 16 -151 111 12 23 57 49 83 50 10 0 31 -7 47
-15z"/>
<path d="M1930 1440 l0 -430 50 0 49 0 3 137 3 137 120 -137 120 -136 75 -1
74 0 -41 43 c-22 23 -83 89 -136 146 l-96 104 127 123 127 123 -70 1 -70 0
-117 -117 -118 -118 0 278 0 277 -50 0 -50 0 0 -430z"/>
<path d="M2520 1440 l0 -430 50 0 50 0 0 158 c0 182 8 219 55 261 64 56 158
50 196 -13 17 -28 19 -51 19 -218 l0 -188 56 0 56 0 -3 208 c-4 205 -4 208
-31 254 -61 103 -228 120 -315 33 l-33 -33 0 199 0 199 -50 0 -50 0 0 -430z"/>
<path d="M3800 1440 l0 -430 50 0 50 0 0 430 0 430 -50 0 -50 0 0 -430z"/>
<path d="M4500 1675 l0 -196 -37 29 c-80 62 -183 70 -280 22 -105 -53 -148
-134 -141 -268 6 -118 57 -200 152 -243 82 -37 219 -18 278 38 l28 27 0 -37 0
-37 50 0 50 0 0 430 0 430 -50 0 -50 0 0 -195z m-113 -220 c50 -21 72 -42 94
-90 76 -165 -79 -331 -238 -254 -127 62 -130 270 -4 336 51 27 97 29 148 8z"/>
<path d="M3285 1536 c-107 -49 -160 -134 -160 -256 0 -123 51 -209 150 -256
73 -34 191 -34 261 1 28 14 62 38 77 53 l28 29 -40 28 -41 27 -35 -30 c-19
-17 -50 -35 -68 -40 -44 -12 -122 0 -155 25 -34 25 -72 80 -72 104 0 18 12 19
215 19 l215 0 0 48 c0 84 -26 152 -79 202 -27 26 -63 51 -87 58 -67 20 -152
15 -209 -12z m191 -76 c45 -22 74 -67 74 -114 l0 -26 -161 0 -161 0 6 31 c20
104 141 158 242 109z"/>
<path d="M4905 1544 c-55 -19 -109 -66 -143 -122 -24 -42 -27 -56 -27 -142 0
-79 4 -102 22 -136 28 -53 105 -121 152 -134 48 -13 168 -11 208 3 39 15 123
73 123 86 0 6 -16 22 -35 37 l-35 26 -35 -30 c-62 -56 -151 -61 -226 -14 -38
23 -69 69 -69 101 0 21 3 21 216 21 l217 0 -6 66 c-15 162 -111 255 -259 253
-35 0 -81 -7 -103 -15z m174 -82 c44 -22 70 -57 78 -105 l6 -37 -162 0 c-156
0 -161 1 -161 20 0 45 50 109 100 129 39 15 102 13 139 -7z"/>
</g>
</svg>
